<svg xmlns="http://www.w3.org/2000/svg" xmlns:xlink="http://www.w3.org/1999/xlink" viewBox="0 0 1663.47 530.81"><defs><style>.cls-1{fill:none;}.cls-2{isolation:isolate;}.cls-3{clip-path:url(#clip-path);}.cls-4{fill:#120b34;}.cls-5{clip-path:url(#clip-path-2);}.cls-6{clip-path:url(#clip-path-3);}.cls-7{clip-path:url(#clip-path-4);}.cls-8{clip-path:url(#clip-path-5);}.cls-9{clip-path:url(#clip-path-6);}.cls-10{fill:#00f1fc;}.cls-11{fill:#0735f4;mix-blend-mode:hard-light;}</style><clipPath id="clip-path" transform="translate(-2068.26 -274.59)"><path id="Mask" class="cls-1" d="M3731.68,506.67a113.84,113.84,0,0,0-20.58-51.13,114.48,114.48,0,0,0-206,83.53,114.46,114.46,0,0,0,194.2,64.46q2.42-2.41,4.68-5a5.55,5.55,0,0,0-.67-8l-40.61-32.48a5.52,5.52,0,0,0-7.41.46l-.49.5a51.53,51.53,0,1,1-6.2-78.14,50.41,50.41,0,0,1,6.2,5.28,51.52,51.52,0,0,1,13,50.89l60.49-24.52A5.52,5.52,0,0,0,3731.68,506.67Z"/></clipPath><clipPath id="clip-path-2" transform="translate(-2068.26 -274.59)"><path id="Mask-2" data-name="Mask" class="cls-1" d="M3330.55,408.15h0A114.45,114.45,0,0,0,3216.1,522.6h0a114.45,114.45,0,0,0,114.45,114.45h0A114.45,114.45,0,0,0,3445,522.6h0A114.45,114.45,0,0,0,3330.55,408.15Zm51.08,114.45a51.09,51.09,0,1,1-102.17,0h0a51.09,51.09,0,1,1,102.17,0Z"/></clipPath><clipPath id="clip-path-3" transform="translate(-2068.26 -274.59)"><rect id="Mask-3" data-name="Mask" class="cls-1" x="3124.03" y="408.15" width="63.37" height="228.9" rx="6.44"/></clipPath><clipPath id="clip-path-4" transform="translate(-2068.26 -274.59)"><path id="Mask-4" data-name="Mask" class="cls-1" d="M2829.34,408.15h0A100.44,100.44,0,0,0,2728.9,508.59V629.4a7.64,7.64,0,0,0,7.65,7.65h47.06a7.64,7.64,0,0,0,7.65-7.65V508.26a38.09,38.09,0,0,1,38.08-38.09h0a38.09,38.09,0,0,1,38.09,38.09V629.4a7.64,7.64,0,0,0,7.65,7.65h47.06a7.64,7.64,0,0,0,7.65-7.65V508.59A100.44,100.44,0,0,0,2829.34,408.15Z"/></clipPath><clipPath id="clip-path-5" transform="translate(-2068.26 -274.59)"><rect id="Mask-5" data-name="Mask" class="cls-1" x="2499.07" y="408.15" width="62.36" height="228.9" rx="6.44"/></clipPath><clipPath id="clip-path-6" transform="translate(-2068.26 -274.59)"><path id="Mask-6" data-name="Mask" class="cls-1" d="M2323.29,573.51h-19a23.26,23.26,0,0,1-16.42-6.8l-76.33-76.34a8.55,8.55,0,0,0-12.09,0l-32.85,32.85a8.55,8.55,0,0,0,0,12.08l82.76,82.76a64.8,64.8,0,0,0,45.78,19l28.18,0a8.55,8.55,0,0,0,8.55-8.55V582.05A8.54,8.54,0,0,0,2323.29,573.51Z"/></clipPath></defs><g class="cls-2"><g id="withBGMask"><g id="mackgroundMask"><g id="e_mask" data-name="e mask"><g class="cls-3"><rect id="Background" class="cls-4" x="1435.62" y="133.55" width="227.85" height="228.9"/></g></g><g id="g_mask" data-name="g mask"><g class="cls-5"><rect id="Background-2" data-name="Background" class="cls-4" x="1147.42" y="133.55" width="228.9" height="228.9"/></g></g><g id="a_mask" data-name="a mask"><g class="cls-6"><rect id="Background-3" data-name="Background" class="cls-4" x="1055.77" y="131.35" width="63.37" height="231.11"/></g></g><g id="m_mask" data-name="m mask"><g class="cls-7"><rect id="Background-4" data-name="Background" class="cls-4" x="660.64" y="133.55" width="200.89" height="228.9"/></g></g><g id="u_mask" data-name="u mask"><g class="cls-8"><rect id="Background-5" data-name="Background" class="cls-4" x="430.8" y="133.55" width="62.36" height="228.9"/></g></g><g id="Q_mask" data-name="Q mask"><g class="cls-9"><rect id="Background-6" data-name="Background" class="cls-4" x="95.81" y="213.27" width="167.76" height="149.18"/></g></g></g><g id="Word"><g id="e"><path class="cls-10" d="M3731.68,506.67a5.52,5.52,0,0,1-3.4,5.87l-60.49,24.52-74.87,30.35-64.41,26.11a113.77,113.77,0,0,1-23.44-54.45l62.52-25.35,81-32.83,62.53-25.35A113.84,113.84,0,0,1,3731.68,506.67Z" transform="translate(-2068.26 -274.59)"/><path class="cls-11" d="M3662.67,558.07l40.61,32.48a5.55,5.55,0,0,1,.67,8q-2.26,2.55-4.68,5a114.47,114.47,0,1,1,32.41-96.86,5.52,5.52,0,0,1-3.4,5.87l-60.49,24.52a51.52,51.52,0,0,0-13-50.89,50.41,50.41,0,0,0-6.2-5.28,51.52,51.52,0,1,0,6.2,78.14l.49-.5A5.52,5.52,0,0,1,3662.67,558.07Z" transform="translate(-2068.26 -274.59)"/></g><g id="g"><path class="cls-10" d="M3291,637.05a10.39,10.39,0,0,0-10.39,10.6,10.63,10.63,0,0,0,10.74,10.21H3364l-.06.44a73.8,73.8,0,0,1,79.67,55.56,71.6,71.6,0,0,1,1.43,7.37,74.52,74.52,0,0,1,0,20.81,73.66,73.66,0,0,1-73,63.37h-63.34a9,9,0,0,1-9-9V751a9,9,0,0,1,9-9h63a10.63,10.63,0,0,0,10.74-10.22A10.4,10.4,0,0,0,3372,721.23h-73l.06-.44a73.77,73.77,0,1,1-8.06-147.1h39.56a51.09,51.09,0,0,0,51.08-51.09V471.72a63.57,63.57,0,0,1,63.57-63.57h21a9,9,0,0,1,9,9v45.54a9,9,0,0,1-9,9h-12.05a9,9,0,0,0-9,9l-.16,43.87a114.46,114.46,0,0,1-114.43,112.52" transform="translate(-2068.26 -274.59)"/><path class="cls-11" d="M3330.55,408.15h0A114.45,114.45,0,0,0,3216.1,522.6h0a114.45,114.45,0,0,0,114.45,114.45h0A114.45,114.45,0,0,0,3445,522.6h0A114.45,114.45,0,0,0,3330.55,408.15Zm51.08,114.45a51.09,51.09,0,0,1-51.08,51.09h0a51.09,51.09,0,0,1-51.09-51.09h0a51.09,51.09,0,0,1,51.09-51.09h0a51.08,51.08,0,0,1,51.08,51.09Z" transform="translate(-2068.26 -274.59)"/></g><g id="a"><path class="cls-10" d="M3072.94,408.15h0A114.45,114.45,0,0,0,2958.49,522.6h0a114.45,114.45,0,0,0,114.45,114.45h0A114.45,114.45,0,0,0,3187.39,522.6h0A114.45,114.45,0,0,0,3072.94,408.15ZM3124,522.6a51.09,51.09,0,0,1-51.09,51.09h0a51.09,51.09,0,0,1-51.08-51.09h0a51.08,51.08,0,0,1,51.08-51.09h0A51.09,51.09,0,0,1,3124,522.6Z" transform="translate(-2068.26 -274.59)"/><rect class="cls-11" x="3124.03" y="408.15" width="63.37" height="228.9" rx="6.44" transform="translate(4243.16 770.61) rotate(180)"/></g><g id="m"><path class="cls-10" d="M2652.49,629.4V508.26a38.09,38.09,0,0,1,38.08-38.09h0a38.09,38.09,0,0,1,38.09,38.09V629.4a7.64,7.64,0,0,0,7.64,7.65h47.07a7.65,7.65,0,0,0,7.65-7.65V508.59a100.44,100.44,0,0,0-100.45-100.44h0a100.44,100.44,0,0,0-100.44,100.44V629.4a7.64,7.64,0,0,0,7.65,7.65h47.06A7.65,7.65,0,0,0,2652.49,629.4Z" transform="translate(-2068.26 -274.59)"/><path class="cls-11" d="M2791.26,629.4V508.26a38.09,38.09,0,0,1,38.08-38.09h0a38.09,38.09,0,0,1,38.09,38.09V629.4a7.64,7.64,0,0,0,7.65,7.65h47.06a7.64,7.64,0,0,0,7.65-7.65V508.59a100.44,100.44,0,0,0-100.45-100.44h0A100.44,100.44,0,0,0,2728.9,508.59V629.4a7.64,7.64,0,0,0,7.65,7.65h47.06A7.64,7.64,0,0,0,2791.26,629.4Z" transform="translate(-2068.26 -274.59)"/></g><g id="u"><path class="cls-10" d="M2499.07,414.59V536.94A38.09,38.09,0,0,1,2461,575h0a38.08,38.08,0,0,1-38.08-38.08V414.59a6.44,6.44,0,0,0-6.44-6.44H2367a6.44,6.44,0,0,0-6.44,6.44v122A100.44,100.44,0,0,0,2461,637.05h0a100.44,100.44,0,0,0,100.45-100.44v-122a6.44,6.44,0,0,0-6.45-6.44h-49.47A6.44,6.44,0,0,0,2499.07,414.59Z" transform="translate(-2068.26 -274.59)"/><rect class="cls-11" x="2499.07" y="408.15" width="62.36" height="228.9" rx="6.44" transform="translate(2992.23 770.61) rotate(180)"/></g><g id="Q"><path class="cls-10" d="M2189.8,274.59h0a121.55,121.55,0,0,0-121.54,121.54V515.51A121.54,121.54,0,0,0,2189.8,637.05h0a121.53,121.53,0,0,0,121.54-121.54V396.13A121.54,121.54,0,0,0,2189.8,274.59Zm58,241.8a58,58,0,0,1-58,58h0a58,58,0,0,1-58-58V395.25a58,58,0,0,1,58-58h0a58,58,0,0,1,58,58Z" transform="translate(-2068.26 -274.59)"/><path class="cls-11" d="M2249.33,618.06l-82.76-82.76a8.55,8.55,0,0,1,0-12.08l32.85-32.85a8.55,8.55,0,0,1,12.09,0l76.33,76.34a23.26,23.26,0,0,0,16.42,6.8h19a8.54,8.54,0,0,1,8.55,8.54V628.5a8.55,8.55,0,0,1-8.55,8.55l-28.18,0A64.8,64.8,0,0,1,2249.33,618.06Z" transform="translate(-2068.26 -274.59)"/></g></g></g></g></svg>